<?xml version="1.0" encoding="utf-8"?>
<!-- Generator: Adobe Illustrator 26.0.2, SVG Export Plug-In . SVG Version: 6.00 Build 0)  -->
<svg version="1.1" id="Layer_1" xmlns="http://www.w3.org/2000/svg" xmlns:xlink="http://www.w3.org/1999/xlink" x="0px" y="0px"
	 viewBox="0 0 1080 1256" style="enable-background:new 0 0 1080 1256;" xml:space="preserve">
<path d="M1080,859.9c-0.4,54.5-38.6,101.4-91.9,112.7c-1.6,0.4-3.2,0.7-4.9,0.9c-6,1-12,1.5-18,1.5l-32.4-0.1h-9.6l-44.2-0.1h-9.6
	l-36.5-0.1l-32.8-0.1l-114.7,113.8l-86.9,86.3l-58.7,58.2c-4.2,3.9-8.8,7-14,9.3c-7.7,3.6-16.1,5.2-24.6,4.9l-0.9-0.1
	c-11.4,0-22.7-2.2-33.4-6.5l-1.8-0.7c-17.9-6-30.4-22-31.7-40.8V974.9H115.1C51.6,974.7,0.2,923.3,0,859.9v-745
	c0-6.1,0.5-12.1,1.5-18.1c0.2-1.7,0.5-3.3,1-4.9c4.4-21.1,14.6-40.7,29.6-56.3c4.6-4.8,9.6-9.2,15-13.2C66.7,7.9,90.5,0,115,0H965
	c63.3,0.2,114.7,51.5,114.9,114.9L1080,859.9L1080,859.9z"/>
</svg>
