<?xml version="1.0" encoding="utf-8"?>
<!-- Generator: Adobe Illustrator 26.0.2, SVG Export Plug-In . SVG Version: 6.00 Build 0)  -->
<svg version="1.1" id="Layer_1" xmlns="http://www.w3.org/2000/svg" xmlns:xlink="http://www.w3.org/1999/xlink" x="0px" y="0px"
	 viewBox="0 0 599.8 207.1" style="enable-background:new 0 0 599.8 207.1;" xml:space="preserve">
<style type="text/css">
	.st0{fill:#FFFFFF;}
	.st1{fill:#FFFF00;}
	.st2{fill:#FF8C00;}
	.st3{fill:#FF6700;}
</style>
<g>
	<g id="Group_3787_00000132808563202268083990000005771519505725591998_">
		<path id="Path_23_00000119800706641240605490000011587090442573464995_" class="st0" d="M156.2,121.5H155v11.1
			c0,1.8-0.4,3.6-1.1,5.3l-0.1,0.2c-2.2,4.8-6.9,7.9-12.1,7.9l-3.8,0l-6.3,0l-5.4,0l-3.8,0l-13.3,13.2l-10.1,10l-6.8,6.8
			c-0.5,0.5-1,0.8-1.6,1.1c-0.9,0.4-1.9,0.6-2.9,0.6h-0.1c-1.3,0-2.6-0.3-3.9-0.8l-0.2-0.1c-2.1-0.7-3.5-2.6-3.7-4.7v-26H43
			c-7.4,0-13.3-6-13.4-13.3V46.1c0-4.2,2-8.2,5.5-10.7c0.8-0.6,1.7-1.1,2.6-1.5l0,0c1.7-0.7,3.5-1.1,5.3-1.1h11.1v-6.2H43
			c-4.7,0-9.2,1.7-12.8,4.8c-0.1,0.1-0.2,0.2-0.3,0.3c0,0,0,0-0.1,0l-0.9,0.9l-0.3,0.3c0,0,0,0-0.1,0.1l-9.7,9.6c0,0,0,0,0,0
			c0,0,0,0,0,0l-6.6,6.5c0,0,0,0,0,0L6,55.2l-0.5,0.5c-0.1,0.1-0.2,0.2-0.2,0.2C1.9,59.6,0,64.4,0,69.3v86.5
			c0,10.8,8.8,19.6,19.6,19.6h30.7v19.9l0,0.2c0.3,4.7,3.4,8.9,7.9,10.4c1.9,0.8,4,1.2,6,1.2c0.2,0,0.3,0,0.4,0
			c3.2,0,6.2-1.2,8.5-3.4l0.8-0.8l0.2,0l27.6-27.5l16.5,0c5.8,0,11.4-2.6,15.1-7.1v0l4.5-4.5c0,0,0,0,0.1-0.1l2.1-2.1l0,0l5.2-5.2
			c0,0,0,0,0,0l0,0l1.6-1.6c0,0,0.1-0.1,0.1-0.1l7.2-7.1c0.9-0.8,1.7-1.6,2.5-2.5l0,0c0,0,0,0,0-0.1l0,0c0,0,0,0,0,0l0,0
			c0.1-0.1,0.1-0.1,0.2-0.2l0,0c2.8-3.5,4.3-7.8,4.3-12.2v-11.1L156.2,121.5z"/>
		<path id="Path_24_00000012449734509029952000000010726276064789242496_" class="st1" d="M166.2,121.5l-3.8,0H162v4.2
			c0,1.5-0.2,2.9-0.7,4.3c-0.1,0.3-0.2,0.6-0.4,0.9h0c0,0.1-0.1,0.2-0.1,0.3c-1.4,3-3.8,5.5-6.9,6.8c-1.7,0.7-3.4,1.1-5.3,1.1
			l-3.8,0l-6.3,0l-5.4,0l-3.8,0l-13.3,13.2l-10.1,10l-6.8,6.8c-0.5,0.4-1,0.8-1.6,1.1c-0.9,0.4-1.9,0.6-2.9,0.6l-0.1,0
			c-1.3,0-2.6-0.3-3.9-0.8l-0.2-0.1c-2.1-0.7-3.5-2.6-3.7-4.7v-26h-37c-7.4,0-13.3-6-13.4-13.3V39.1c0-1.8,0.4-3.6,1.1-5.3
			c1.4-3.2,3.9-5.7,7.1-7c0.3-0.1,0.6-0.2,0.9-0.3c1.4-0.5,2.8-0.7,4.3-0.7h4.2v-4.1c0-0.7,0.1-1.4,0.2-2.1h-4.3
			c-4.7,0-9.2,1.7-12.8,4.8c-0.1,0.1-0.2,0.2-0.3,0.3c0,0,0,0-0.1,0l-1.3,1.3L35.4,26l-6.4,6.3l0,0l-9.9,9.9l0,0L13,48.3l-0.5,0.5
			l-0.1,0.1c0,0-0.1,0.1-0.1,0.1c-0.1,0.1-0.1,0.1-0.2,0.2C8.8,52.8,7,57.5,7,62.4v86.5c0,10.8,8.8,19.6,19.6,19.6h30.7v19.9l0,0.2
			c0.3,4.7,3.4,8.9,7.9,10.4c1.9,0.8,4,1.2,6,1.2c0.1,0,0.3,0,0.4,0c3.2,0,6.2-1.2,8.5-3.4l0.8-0.8l0.2,0l27.6-27.5l16.5,0
			c4.6,0,9.1-1.7,12.6-4.7c0.8-0.6,1.5-1.4,2.2-2.1c0.1-0.1,0.2-0.2,0.3-0.3v0l4.6-4.6l0,0l2.3-2.3l0,0l8.7-8.7l0,0l0.7-0.7l0.4-0.4
			l0,0l0,0l4-3.9c0.9-0.8,1.8-1.7,2.6-2.6l0,0c0.1-0.1,0.2-0.3,0.3-0.4l0,0c2.7-3.4,4.1-7.7,4.1-12v-4.3
			C167.6,121.5,166.9,121.5,166.2,121.5z"/>
		<path id="Path_25_00000154427772228111174270000002478613825177787821_" class="st2" d="M170.9,119.2c-0.1,0.7-0.3,1.3-0.6,1.9
			c-0.1,0.3-0.2,0.6-0.3,0.8c-1.3,3-3.7,5.3-6.6,6.7c-0.1,0.1-0.2,0.1-0.4,0.2c-1.6,0.7-3.4,1.1-5.1,1.1h-0.7l-3,0l-6.3,0l-5.4,0
			l-3.8,0L125.3,143l-10.1,10l-6.8,6.8c-0.5,0.5-1,0.8-1.6,1.1c-0.9,0.4-1.9,0.6-2.9,0.6l-0.1,0c-1.3,0-2.6-0.3-3.9-0.8l-0.2-0.1
			c-2.1-0.7-3.5-2.6-3.7-4.7v-26h-37c-7.4,0-13.3-6-13.4-13.4V30c0-1.8,0.4-3.5,1.1-5.2c0-0.1,0.1-0.2,0.1-0.3
			c1-2.1,2.4-3.9,4.3-5.2c1-0.7,2.1-1.3,3.2-1.8c0.6-0.2,1.3-0.4,2-0.6c0.5-2.5,1.7-4.7,3.4-6.5h-0.8c-4.7,0-9.2,1.7-12.8,4.8
			c-0.1,0.1-0.2,0.2-0.3,0.3c0,0,0,0,0,0l-1.3,1.3c0,0,0,0-0.1,0.1L31.4,29.9l-9.3,9.2l-0.5,0.5c-0.1,0.1-0.2,0.2-0.2,0.2
			c-0.1,0.1-0.2,0.2-0.3,0.3c-0.1,0.1-0.2,0.2-0.3,0.3c0,0,0,0,0,0c-3,3.5-4.7,8-4.7,12.7v86.5c0,10.8,8.8,19.6,19.6,19.6h30.7v19.9
			l0,0.2c0.3,4.7,3.4,8.9,7.9,10.4c1.9,0.8,4,1.2,6,1.2c0.2,0,0.3,0,0.4,0c3.2,0,6.2-1.2,8.5-3.4l0.8-0.9l0.2,0l27.6-27.5l16.5,0
			c4.6,0,9.1-1.6,12.6-4.6l0.3-0.2c0,0,0,0,0,0c0.6-0.5,1.1-1.1,1.6-1.6c0.1-0.1,0.2-0.2,0.3-0.4c0.1-0.1,0.1-0.2,0.2-0.2v0l8.1-8
			l1.4-1.4l0.6-0.5l6.3-6.2l4.5-4.5c4.4-3.7,7-9.2,7.1-15v-0.8C175.6,117.5,173.3,118.7,170.9,119.2z"/>
		<path id="Path_26_00000137811480048930378040000013009475484843911607_" class="st3" d="M168.2,0H69.5c-4.7,0-9.2,1.7-12.8,4.8
			c-0.1,0.1-0.2,0.2-0.3,0.3c0,0,0,0,0,0L55,6.4c0,0,0,0-0.1,0.1L32.5,28.7l-0.5,0.5c-0.1,0.1-0.2,0.2-0.2,0.2
			c-0.2,0.2-0.3,0.3-0.4,0.5c-0.1,0.1-0.2,0.2-0.3,0.4l0,0c-0.1,0.1-0.1,0.2-0.2,0.2c-2.8,3.5-4.4,7.8-4.4,12.3v86.5
			c0,10.8,8.8,19.6,19.6,19.6h30.7v19.9l0,0.2c0.3,4.7,3.4,8.9,7.9,10.4c1.9,0.8,4,1.2,6,1.2c0.2,0,0.3,0,0.4,0
			c3.2,0,6.2-1.2,8.5-3.4l0.8-0.8l0.2,0l27.6-27.5l16.5,0c4.7,0,9.2-1.7,12.8-4.8c0.2-0.1,0.3-0.3,0.5-0.4l0,0
			c0.2-0.2,0.4-0.4,0.6-0.6l0,0c0,0,0,0,0-0.1l0,0c0.2-0.1,0.3-0.3,0.4-0.5l0,0l0,0c0.1-0.1,0.2-0.2,0.3-0.3
			c0.1-0.1,0.3-0.3,0.4-0.5v0l6.2-6.2l0,0l6.9-6.8l7.7-7.7c4.5-3.7,7.1-9.2,7.1-15V19.6C187.8,8.8,179,0,168.2,0z M181.6,106.1
			c0,6.3-4.5,11.8-10.7,13.1c-0.2,0-0.4,0.1-0.6,0.1c-0.7,0.1-1.4,0.2-2.1,0.2l-3.8,0h-1.1l-5.1,0h-1.1l-4.2,0l-3.8,0l-13.3,13.2
			l-10.1,10l-6.8,6.8c-0.5,0.5-1,0.8-1.6,1.1c-0.9,0.4-1.9,0.6-2.9,0.6l-0.1,0c-1.3,0-2.6-0.3-3.9-0.8l-0.2-0.1
			c-2.1-0.7-3.5-2.6-3.7-4.7v-26h-37c-7.4,0-13.3-6-13.4-13.4V19.6c0-0.7,0.1-1.4,0.2-2.1c0-0.2,0.1-0.4,0.1-0.6
			c0.5-2.5,1.7-4.7,3.4-6.5c0.5-0.6,1.1-1.1,1.7-1.5c2.3-1.7,5.1-2.6,7.9-2.6h98.7c7.4,0,13.3,6,13.3,13.3V106.1z"/>
	</g>
	<g id="Group_3789_00000052823335382325717490000001448317544847333768_" transform="translate(58.579 17.386)">
		<g id="Group_3788_00000000213860564211777410000016348833714631729816_">
			<path id="Path_27_00000072961869181957909770000008739059782913739690_" class="st0" d="M84.6,26.6l1-5.4l0.5-2.7l0.5-2.6L88,9.2
				H75.7l-1.2,6L74,17.9l-0.5,2.7l-1.2,6H59.7l1.2-6l0.5-2.7l0.5-2.7l1.2-6H50.9l-1.2,6l-0.5,2.7l-0.5,2.7l-1.2,6H36.4v10.8h9.1
				l-3.7,19.7H31v10.8h8.7l-3.3,17.4h12.2l3.3-17.4h12.6l-3.3,17.4h12.3l3.3-17.4h11.2V57.1h-9l3.7-19.7h10.7V26.6L84.6,26.6z
				 M66.6,57.1H54l3.7-19.7h12.6L66.6,57.1z"/>
		</g>
	</g>
	<g>
		<g>
			<path id="Path_28_00000178891086737579236490000008040494761437978799_" class="st1" d="M239.3,102.8V41.7h-21.8V26.6h61.3v15.1
				H257v61.1H239.3z"/>
			<path id="Path_29_00000174585978421859158690000006212562446373292968_" class="st1" d="M287.9,26.6h26.1
				c8.7,0,15.7,1.8,20.8,5.5c4.9,3.2,7.9,8.7,7.7,14.6c0.1,3.2-0.8,6.4-2.6,9.2c-1.9,2.8-4.4,5-7.5,6.5c3.8,1.4,7.1,3.9,9.5,7.1
				c2.2,3.2,3.4,7,3.3,10.8c0.3,6.7-2.9,13-8.4,16.7c-5.6,3.9-13.6,5.9-24,5.9h-24.9V26.6z M313.9,57.3c3,0.2,5.9-0.7,8.3-2.4
				c3.5-2.8,4.1-7.9,1.4-11.4c-0.3-0.4-0.7-0.8-1.1-1.1c-2.3-1.6-5.2-2.4-8-2.3H305v17.2L313.9,57.3z M313.7,89.2
				c3.6,0.2,7.1-0.6,10.2-2.5c2.3-1.7,3.7-4.5,3.5-7.3c0.1-2.7-1.2-5.2-3.4-6.7c-2.8-1.7-6.1-2.6-9.4-2.4H305v18.9L313.7,89.2z"/>
			<path id="Path_30_00000173146551308812655900000013349016639372456122_" class="st1" d="M370.8,102.8V41.7H349V26.6h61.3v15.1
				h-21.8v61.1H370.8z"/>
			<path id="Path_31_00000139263099878526019150000001870700070305454741_" class="st1" d="M443.2,104.2c-7.3,0.3-14.4-2.7-19.1-8.2
				c-4.7-5.5-7.1-12.9-7.1-22.4c-0.1-5.5,0.9-11,3.1-16.1c1.8-4.2,4.8-7.9,8.6-10.4c3.8-2.4,8.2-3.7,12.8-3.6
				c6.3-0.3,12.4,2.5,16.3,7.5c4,5,5.9,11.8,5.9,20.5v4h-40.3c0.4,7.2,2.3,12.7,5.9,16.8c3.7,4.1,9,6.3,14.5,6
				c5.9,0.1,11.8-1.7,16.6-5.2v6.2C455.3,102.6,449.3,104.4,443.2,104.2z M441.2,49.2c-4.7-0.2-9.3,1.8-12.4,5.4
				c-3.3,4.4-5.2,9.8-5.2,15.4h34c-0.2-6.5-1.7-11.6-4.5-15.3C450.2,51.1,445.8,49,441.2,49.2L441.2,49.2z"/>
			<path id="Path_32_00000075856228875329368760000002018654716418817944_" class="st1" d="M475.5,45h5.8l0.5,8.9
				c1.2-3,3.3-5.6,5.9-7.4c2.6-1.8,5.6-2.7,8.8-2.6c1.8,0,3.5,0.2,5.2,0.8v6c-1.7-0.6-3.5-0.8-5.3-0.8c-4.1-0.1-8,1.8-10.3,5.2
				c-2.8,4-4.1,8.9-3.9,13.8v34h-6.5L475.5,45z"/>
			<path id="Path_33_00000088121553617366078020000016809254669593629119_" class="st1" d="M533.1,104.2c-7.3,0.3-14.3-2.7-19.1-8.2
				c-4.7-5.5-7.1-12.8-7.1-22.1c-0.1-5.6,1-11.1,3.4-16.1c2-4.3,5.3-8,9.3-10.6c8.5-4.9,18.9-5,27.5-0.2v6.3
				c-4-2.8-8.7-4.1-13.5-3.8c-5.6-0.2-11.1,2.2-14.6,6.5c-3.6,4.4-5.4,10.3-5.4,17.8c-0.3,6.4,1.6,12.6,5.4,17.7
				c3.6,4.4,9,6.9,14.7,6.7c5.1,0.1,10.2-1.4,14.5-4.3v6.2C543.5,102.9,538.3,104.3,533.1,104.2z M534.2,101l-2.6,10.2
				c3.1-0.1,6.2,0.8,8.8,2.6c2.1,1.7,3.3,4.2,3.2,6.9c0.1,3.1-1.3,6.1-3.8,8c-2.8,2.1-6.3,3.2-9.9,3.1c-2.4,0-4.7-0.4-6.9-1.2v-4.7
				c2.2,0.8,4.5,1.2,6.8,1.2c2.1,0.1,4.2-0.5,6-1.7c1.5-1,2.4-2.7,2.4-4.5c0-3.8-3-5.6-8.9-5.6H526l3.5-14.2L534.2,101z"/>
			<path id="Path_34_00000134250064803897729730000015471486366199433143_" class="st1" d="M575.1,104.2c-4.8,0.2-9.5-1.4-13.2-4.5
				c-3.4-3.1-5.2-7.5-5-12.1c-0.2-6,2.9-11.6,8.1-14.7c5.4-3.4,13.2-5.1,23.4-5.1h2.5c0.8,0,1.6,0,2.4,0.1v-0.5
				c0-6.2-1.2-10.7-3.7-13.7c-2.5-3-6.3-4.5-11.4-4.5c-6,0-11.8,1.9-16.7,5.3v-6.1c5.1-3.4,11.1-5.1,17.3-5.1c6.8,0,12,2,15.6,6
				c3.7,4,5.5,9.8,5.5,17.3v35.9H594l-0.5-8.5c-1.8,3.1-4.4,5.7-7.6,7.3C582.6,103.3,578.9,104.3,575.1,104.2z M576.1,98.8
				c3.1,0,6.2-0.8,8.8-2.5c2.5-1.6,4.7-3.7,6.2-6.3c1.5-2.5,2.2-5.3,2.2-8.2v-8.4c-1.4-0.1-3.3-0.1-5.8-0.1
				c-7.8,0-13.8,1.2-17.9,3.5c-5.8,3.2-7.8,10.4-4.7,16.2c0.5,1,1.2,1.8,2,2.6C569.4,97.8,572.7,99,576.1,98.8L576.1,98.8z"/>
		</g>
		<g id="Group_3797_00000147926124897507654130000009027645653021341876_" transform="translate(611.403 406.495)">
			<g id="Path_2_00000137134188084066678300000013518268775062520233_" transform="translate(11.322 5.522)">
				<g id="Group_3792_00000083090322893847231590000009569091472090963391_">
					<path id="Path_35_00000183971803834419959720000007475220367766208424_" class="st0" d="M-383.5-276c0.8,0,1.6-0.3,2.2-0.9
						c1.2-1.2,1.2-3.1,0-4.3c-1.2-1.2-3.2-1.2-4.4,0c-1.2,1.2-1.2,3.1,0,4.3C-385.1-276.3-384.3-276-383.5-276"/>
				</g>
			</g>
			<g id="Group_3796_00000059989405657546680220000010417772926284140435_" transform="translate(0 0)">
				<g id="Group_3794_00000174581968550877272450000001648463959367250091_">
					<g id="Path_1_00000061433140278346778600000015377111027313971627_">
						<g id="Group_3793_00000088833672963375210520000010498918137616776877_">
							<path id="Path_36_00000136381619358788213930000006684230219751808647_" class="st0" d="M-371.6-286.9
								c-5.8,0-11.5,2.4-15.6,6.4c-9.6,9.3-7.5,23.5-1.9,30c7.5,8.8,20.2,10.2,30.5,6.3l-0.3-2c-5.7,2.4-18.6,4.4-27.1-5.8
								c-2.8-3.7-4.4-8.3-4.3-12.9c-0.7-9.7,6.5-18.2,16.3-19c0.8-0.1,1.7-0.1,2.5,0c10.6,0,18,7.1,18,17.3c0.2,3.5-0.9,7-3.1,9.7
								c-2.1,2.4-5.2,3.7-8.3,3.6c-1.4,0.1-2.8-0.3-3.9-1.3c-0.9-1-1.3-2.4-1.1-3.8l0.5-10.7h-5.3l-0.5,10.3c-0.2,2.2,0.5,4.3,2,5.9
								c2.2,1.9,5.1,2.8,7.9,2.5c4.1-0.3,8-2.1,10.9-5.2c2.8-3.1,4.4-7.1,4.4-11.3C-350.2-278.7-358.9-286.9-371.6-286.9"/>
						</g>
					</g>
					<path id="Path_37_00000005972508310179531390000006198270398141221249_" class="st0" d="M-349.5-282.9h7.8l6.9,23.3l6.9-23.3
						h7.6l-10.6,31.2h-8L-349.5-282.9z"/>
					<path id="Path_38_00000147213830379565242790000006268605546852413857_" class="st0" d="M-312.8-251c-2.1,0.1-4.2-0.6-5.8-1.9
						c-1.4-1.3-2.2-3.2-2.2-5.1c-0.1-2.5,1.1-5,3.2-6.4c2.7-1.7,5.9-2.5,9-2.3c0.3,0,0.7,0,1,0c0.3,0,0.7,0,1,0.1
						c-0.1-1.2-0.6-2.3-1.5-3.1c-1.1-0.7-2.4-1.1-3.7-1c-2.4,0-4.7,0.7-6.9,1.8v-5.5c2.5-1.3,5.2-1.9,8-1.9c2.9-0.2,5.8,0.8,7.9,2.7
						c2,2.1,3,4.9,2.8,7.8v14.2h-5.7l-0.4-2.5c-0.7,1-1.7,1.8-2.9,2.3C-310-251.3-311.4-251-312.8-251z M-310.7-255.8
						c1.2,0,2.3-0.5,3.1-1.3c0.8-0.9,1.3-2,1.2-3.2v-2c-0.3,0-0.6,0-0.9,0h-0.9c-1.5-0.1-3,0.2-4.4,0.9c-1,0.5-1.6,1.5-1.5,2.6
						c0,0.9,0.3,1.7,0.9,2.3C-312.5-256.1-311.6-255.8-310.7-255.8L-310.7-255.8z"/>
					<path id="Path_39_00000070808937257091858660000005296836034620389002_" class="st0" d="M-295.2-275.8h6.2l0.5,3.5
						c0.5-1.2,1.3-2.2,2.4-2.9c1-0.7,2.1-1,3.3-1c0.6,0,1.1,0.1,1.7,0.2v6.5c-0.6-0.2-1.3-0.3-2-0.3c-1.4-0.1-2.7,0.5-3.6,1.6
						c-0.9,1.2-1.4,2.7-1.3,4.3v12.4h-7L-295.2-275.8z"/>
					<path id="Path_40_00000018957990686046772850000007097211151544923557_" class="st0" d="M-267-251c-3.4,0.2-6.8-1-9.3-3.4
						c-2.3-2.5-3.5-5.9-3.3-9.4c-0.1-2.3,0.5-4.6,1.5-6.7c0.9-1.8,2.3-3.4,4.1-4.4c1.8-1,3.8-1.6,5.9-1.5c2.9-0.1,5.7,1,7.6,3.2
						c2,2.5,3,5.6,2.8,8.8v3h-15.1c0.7,3.3,3,4.9,6.8,4.9c2.4,0,4.7-0.6,6.8-1.6v5.4C-261.6-251.5-264.3-251-267-251z M-268.4-271.2
						c-2.5,0-4,1.7-4.4,5.1h8.7c0-1.4-0.4-2.7-1.2-3.8C-266.1-270.7-267.2-271.2-268.4-271.2L-268.4-271.2z"/>
					<path id="Path_41_00000123405694010840191560000007883117806709118624_" class="st0" d="M-255.9-242.2c-1.1,0-2.2-0.2-3.2-0.6
						v-5.3c0.6,0.2,1.3,0.3,2,0.3c0.9,0.1,1.8-0.3,2.4-1c0.6-0.9,0.9-2.1,0.8-3.2v-23.8h7v24.1c0.2,2.6-0.7,5.1-2.3,7
						C-251.1-242.9-253.5-242.1-255.9-242.2z M-250.5-278.6c-1.1,0-2.1-0.4-2.9-1.1c-1.5-1.6-1.5-4.1,0-5.6c1.6-1.5,4.2-1.5,5.8,0
						c1.5,1.6,1.5,4.1,0,5.6C-248.4-279-249.4-278.6-250.5-278.6L-250.5-278.6z"/>
					<path id="Path_42_00000159453170901142636300000006824979959826785214_" class="st0" d="M-231.6-251c-2.2,0.1-4.4-0.5-6.3-1.6
						c-1.8-1.1-3.2-2.6-4.1-4.4c-1.9-4.3-1.9-9.1,0.1-13.4c0.9-1.8,2.4-3.4,4.2-4.4c3.9-2.1,8.5-2,12.4,0.1c1.8,1.1,3.2,2.6,4.1,4.4
						c1,2.1,1.5,4.3,1.4,6.6c0.1,2.3-0.5,4.7-1.5,6.8c-0.9,1.8-2.4,3.4-4.2,4.4C-227.4-251.5-229.5-251-231.6-251z M-231.6-256.7
						c1.4,0,2.7-0.7,3.4-1.8c0.9-1.5,1.3-3.3,1.2-5.1c0.1-1.8-0.3-3.6-1.2-5.2c-1.2-1.9-3.7-2.4-5.6-1.2c-0.5,0.3-0.9,0.7-1.2,1.2
						c-0.9,1.5-1.3,3.3-1.2,5.1c-0.1,1.8,0.3,3.6,1.2,5.2C-234.3-257.4-233-256.7-231.6-256.7L-231.6-256.7z"/>
				</g>
				<g id="Group_3795_00000044164121813945080460000006368995721453710765_" transform="translate(115.234 2.078)">
					<path id="Path_43_00000101792453926313204040000016140060983447095956_" class="st0" d="M-319.9-258.6l7.4-7.8
						c1.6-1.6,2.9-3.3,4.2-5.2c0.7-1.2,1.1-2.5,1.1-3.9c0.1-1.2-0.4-2.3-1.3-3.1c-1-0.8-2.3-1.2-3.6-1.1c-2.4,0-4.7,0.7-6.7,2v-5.7
						c2.5-1.5,5.3-2.3,8.2-2.2c2.8-0.1,5.5,0.8,7.7,2.5c1.9,1.7,3,4.1,2.9,6.7c0,2.1-0.5,4.2-1.5,6c-1.3,2.3-2.9,4.5-4.8,6.3
						l-4.4,4.5h11.2v5.8h-20.4L-319.9-258.6z"/>
					<path id="Path_44_00000017508979169850994840000004958137908054956219_" class="st0" d="M-285.3-253.1
						c-3.4,0.2-6.7-1.4-8.7-4.2c-2.1-2.8-3.1-6.8-3.1-12c0-5.2,1-9.1,3.1-12c3.8-4.8,10.7-5.7,15.6-1.9c0.7,0.5,1.3,1.2,1.9,1.9
						c2.1,2.8,3.1,6.8,3.1,12c0,5.2-1,9.1-3.1,12C-278.6-254.6-281.9-252.9-285.3-253.1z M-285.3-258.9c1.6,0,3-1,3.6-2.5
						c1.5-5.1,1.5-10.6,0-15.7c-0.5-1.5-1.9-2.5-3.5-2.5c-1.6,0-3,1-3.6,2.5c-1.5,5.1-1.5,10.6,0,15.7
						C-288.3-259.9-286.9-258.9-285.3-258.9L-285.3-258.9z"/>
					<path id="Path_45_00000128455371722967394610000015769019775107012277_" class="st0" d="M-263-253.1c-3,0.1-6-0.6-8.7-2v-5.9
						c2.3,1.4,5,2.2,7.7,2.2c1.5,0.1,2.9-0.3,4.2-1.1c1-0.7,1.5-1.9,1.5-3.2c0-2.7-1.8-4-5.4-4h-3.1v-5.6h3c3.2,0,4.8-1.3,4.8-3.8
						c0-2.3-1.6-3.5-4.8-3.5c-2.4,0-4.7,0.6-6.7,1.8v-5.5c2.5-1.4,5.4-2.1,8.2-2c2.7-0.1,5.3,0.7,7.5,2.2c1.8,1.4,2.9,3.7,2.8,6
						c0,1.5-0.4,2.9-1.2,4.1c-0.8,1.3-1.9,2.3-3.2,2.9c1.6,0.5,2.9,1.5,3.9,2.9c2.4,3.8,1.6,8.8-1.8,11.6
						C-256.9-253.8-259.9-252.9-263-253.1z"/>
					<path id="Path_46_00000177442152416889789560000011001426290561218748_" class="st0" d="M-236.9-253.1
						c-3.4,0.2-6.7-1.4-8.7-4.2c-2.1-2.8-3.1-6.8-3.1-12c0-5.2,1-9.1,3.1-12c3.8-4.8,10.7-5.7,15.6-1.9c0.7,0.5,1.3,1.2,1.9,1.9
						c2.1,2.8,3.1,6.8,3.1,12c0,5.2-1,9.1-3.1,12C-230.2-254.6-233.5-252.9-236.9-253.1z M-236.9-258.9c1.6,0,3-1,3.6-2.5
						c1.5-5.1,1.5-10.6,0-15.7c-0.5-1.5-1.9-2.5-3.5-2.5c-1.6,0-3,1-3.6,2.5c-1.5,5.1-1.5,10.6,0,15.7
						C-239.9-259.9-238.5-258.9-236.9-258.9L-236.9-258.9z"/>
				</g>
			</g>
		</g>
	</g>
</g>
</svg>
